<svg width="512" height="512" viewBox="0 0 512 512" fill="none" xmlns="http://www.w3.org/2000/svg">
  <rect width="512" height="512" rx="128" fill="#F2EEFB" />
  <path d="M176 210C176 170.235 208.235 138 248 138H264C303.765 138 336 170.235 336 210V246H176V210Z" stroke="#7956E6" stroke-width="24" />
  <rect x="136" y="226" width="240" height="168" rx="32" fill="#8E74E4" />
  <path d="M256 266C243.85 266 234 275.85 234 288C234 296.282 238.579 303.494 245.349 307.251L237 334H275L266.651 307.251C273.421 303.494 278 296.282 278 288C278 275.85 268.15 266 256 266Z" fill="#F2EEFB" />
  <path d="M325.95 325.547C331.155 346.355 324.318 367.101 310.679 371.879C297.041 376.656 281.762 363.664 276.557 342.856C271.352 322.048 278.189 301.302 291.828 296.524C305.466 291.747 320.745 304.739 325.95 325.547Z" fill="#8E74E4" />
  <path d="M259.782 344.701C264.169 361.243 258.391 377.86 246.876 381.558C235.362 385.256 222.472 374.634 218.084 358.092C213.696 341.551 219.474 324.933 230.989 321.236C242.503 317.538 255.394 328.16 259.782 344.701Z" fill="#8E74E4" />
  <ellipse cx="204.151" cy="365.518" rx="24.157" ry="36.654" transform="rotate(24.683 204.151 365.518)" fill="#8E74E4" />
  <ellipse cx="289.204" cy="289.847" rx="28.653" ry="45.157" transform="rotate(24.683 289.204 289.847)" fill="#8E74E4" />
</svg>
